/* XPM */
static char *_b851ff8300143dce14201531a994b53joIOKsmxEZmvpYuM[] = {
/* columns rows colors chars-per-pixel */
"50 50 163 2 ",
"   c #00437F",
".  c #004683",
"X  c #014986",
"o  c #014E8B",
"O  c #03518D",
"+  c #09568D",
"@  c #044F90",
"#  c #025494",
"$  c #085793",
"%  c #005897",
"&  c #095A94",
"*  c #015799",
"=  c #025B9D",
"-  c #0A5E9A",
";  c #095D9A",
":  c #0C5C99",
">  c #095F9C",
",  c #0A5E9C",
"<  c #095E9E",
"1  c #0A5F9F",
"2  c #0C5D9C",
"3  c #0A5B9A",
"4  c #00619E",
"5  c #01619E",
"6  c #03619E",
"7  c #03619F",
"8  c #00629F",
"9  c #02629F",
"0  c #04609F",
"q  c #04619E",
"w  c #06609E",
"e  c #07619F",
"r  c #05629F",
"t  c #0A609D",
"y  c #08609F",
"u  c #005BA1",
"i  c #005DA0",
"p  c #015DA0",
"a  c #005EA0",
"s  c #015EA1",
"d  c #005FA1",
"f  c #005DA2",
"g  c #015EA3",
"h  c #005FA3",
"j  c #025FA2",
"k  c #035FA2",
"l  c #025EA1",
"z  c #0160A0",
"x  c #0060A1",
"c  c #0260A0",
"v  c #0261A1",
"b  c #0062A1",
"n  c #0163A0",
"m  c #0363A0",
"M  c #0160A2",
"N  c #0061A2",
"B  c #0261A3",
"V  c #0163A2",
"C  c #0062A3",
"Z  c #0561A0",
"A  c #0462A0",
"S  c #0563A1",
"D  c #0663A0",
"F  c #0662A1",
"G  c #0463A3",
"H  c #0563A3",
"J  c #0064A2",
"K  c #0264A3",
"L  c #0464A1",
"P  c #0565A2",
"I  c #0664A2",
"U  c #0765A3",
"Y  c #0466A3",
"T  c #0060A4",
"R  c #0160A4",
"E  c #0061A5",
"W  c #0261A5",
"Q  c #0063A4",
"!  c #0163A4",
"~  c #0062A5",
"^  c #0162A6",
"/  c #0063A6",
"(  c #0162A7",
")  c #0263A7",
"_  c #0164A5",
"`  c #0065A5",
"'  c #0365A4",
"]  c #0266A4",
"[  c #0164A7",
"{  c #0065A7",
"}  c #0265A6",
"|  c #0365A6",
" . c #0066A6",
".. c #0167A7",
"X. c #0366A7",
"o. c #0564A4",
"O. c #0665A5",
"+. c #0466A5",
"@. c #0162A5",
"#. c #0668A6",
"$. c #0A69A7",
"%. c #0263A8",
"&. c #0164A8",
"*. c #0265A8",
"=. c #0066A8",
"-. c #0067A9",
";. c #0167A9",
":. c #0067AA",
">. c #0166A9",
",. c #0268A8",
"<. c #0068AA",
"1. c #0168AA",
"2. c #0069AA",
"3. c #0168AB",
"4. c #0069AB",
"5. c #0268AA",
"6. c #0269AB",
"7. c #016AAB",
"8. c #0669AA",
"9. c #046AAA",
"0. c #0269AC",
"q. c #016AAC",
"w. c #036AAC",
"e. c #026BAC",
"r. c #036AAD",
"t. c #026BAD",
"y. c #016AAE",
"u. c #006BAF",
"i. c #026BAF",
"p. c #046AAC",
"a. c #036CAD",
"s. c #016DAE",
"d. c #036CAE",
"f. c #046DAF",
"g. c #026BAD",
"h. c #0A6CAC",
"j. c #106EAE",
"k. c #016CB0",
"l. c #006DB0",
"z. c #026EB2",
"x. c #0A6EB1",
"c. c #106DB0",
"v. c #0271B5",
"b. c #0971B5",
"n. c #0375BA",
"m. c #0873B9",
"M. c #0279BD",
"N. c #097BBE",
"B. c #047DC1",
"V. c #0C7EC3",
"C. c #107FC4",
"Z. c #0580C3",
"A. c #0C81C5",
"S. c #0D83C9",
"D. c #1281C6",
"F. c #1485CA",
"G. c #1A86CB",
"H. c #1D88CC",
"J. c #1F8AD0",
"K. c #2087CA",
"L. c #2489CC",
"P. c #288BCE",
"I. c #2189D0",
/* pixels */
"    X X X o o O * @ * @ * * * * * = * u = 4 i = 4 = 4 i 4 = B 4 4 4 4 4 r 4 r r - - - 2 : $ $ # O O ",
"  . . X X o o # @ # @ * # * * u * * * = = = = i = B = 4 i B B 4 4 4 4 r 4 r r y w - < 2 : : $ $ O + ",
"    . . o o o # * @ * # * * * * = = = = = = = B 4 4 4 B = 4 4 B 4 n n 4 r r r y y < - < : : & $ + + ",
". . . o o o @ @ @ # # # % * * * = = = = = i 4 = B = B = B B B 4 4 n 4 4 r B r r r < y - < : : & + + ",
". . X o o o # # # # * * * * % = = = = = B 4 4 4 = 4 4 B B n n ` ` n ` B Y r B F y y y y < - - & + + ",
"o . o o # o o # % # * % * * = = = = 4 = = B B 4 B B B B n n n n n n n X.B U U F r r r y y - y : & + ",
"o X o o @ @ # # * * * * = = = u u i i i B B B B B n n ` ` ` ` ` ` ` R Y Y Y Y U B U y y r < r y & & ",
". o o o @ @ # # % * * = * = i i i i i B B B B B n R R ` R &.R ` ` ` ` X.` Y X.U B e r r < r r < & t ",
"o o o O $ @ # % % * % * = u = i i i B R B ` ` R ` ` ` ` ` ..` ..<.&.<.` ..X.X.X.Y B U F U F r y t & ",
"o o O O # # # # % % * * u i i i B B B ` B B ` ` ` ` ` ` ` ` ..` &.&.<.<.<...X.X.X.Y X.B B B Y e ; q ",
"o o # # # # & % * * u u u i g R B B R R ` ` ` &.&.<.` &.<.&.<.<.w.y.w.&.<.<.9.9.X.X.X.X.X.Y Y B 6 w ",
"O o o # % # % % = * = u g R R R R R ` R &.&.<.&.&.&.<.<.<.<.<.<.&.y.w.&.<.9.&.<.&.X.X.X.X.` Y X.6 6 ",
"O # # # & * % * = = i i g R R R R ` &.&.&.<.<.<...9.<.<.<.<.a.<.y.y.y.y.y.y.w.w.<.9.<.X.` <.` ` w 6 ",
"o # # # & * = * = = i i R R R %.&.&.&.&.<.&.9.&.<.<.<.<.<.a.a.a.y.r.r.k.y.k.w.w.9.<.&.w.#.<.#.&.n r ",
"# O # # * * = = = = i B R R &.%.&.&.&.<.<.9.<.w.<.9.<.a.a.a.a.a.y.z.k.w.w.w.w.w.w.w.w.w.<.<.9.` Y X.",
"# # # % * ; ; = = i i R R %.&.&.<.` <.<.9.<.p.9.<.a.a.<.a.a.a.a.k.y.k.k.k.k.w.w.w.w.<.w.&.9.<.<.n X.",
"* # 3 * = = < B i B B R ) X.X.<.<.<.<.<.9.a.a.a.a.9.a.a.a.a.a.l.l.l.l.a.a.s.f.a.a.9.p.9.9.h.X.X.Y Y ",
"3 * * * = = = = B R n R R X.<.&.<.<.<.a.s.s.a.a.a.a.a.s.a.a.a.v.l.x.l.l.a.v.f.f.a.a.h.h.9.h.h.h.$.$.",
"* # = 3 = = = B k ) ` X.X.X.<.<.<.a.a.a.s.s.s.f.a.s.s.s.v.s.a.a.l.l.l.l.s.s.f.f.h.f.a.a.9.a.h.h.$.$.",
"* * * * < k < k B B R ` &.w.<.<.<.<.a.a.s.s.f.f.a.s.s.s.f.s.f.v.v.l.v.z.v.s.f.f.p.f.f.a.h.h.h.h.$.$.",
"u * < u = k k k B ` ) X.&.<.p.a.a.a.a.l.l.v.v.v.v.f.f.v.v.v.s.v.z.z.z.z.x.z.x.z.x.x.f.h.x.x.h.j.$.$.",
"* k * < < k k B B ` ` &.&.&.<.a.w.a.l.a.l.v.b.v.v.v.v.v.v.f.v.f.z.v.v.v.z.z.z.z.x.x.b.h.h.x.x.h.$.$.",
"= = u < k F ) R X.` &.&.y.y.w.a.l.l.l.v.v.v.v.v.v.b.v.v.v.v.v.s.v.z.m.z.m.z.b.z.v.f.x.f.x.h.b.h.j.j.",
"= = = u B B B R %.<.&.<.w.w.w.w.l.l.v.l.v.v.n.m.b.n.v.v.v.v.v.v.v.v.v.n.z.z.z.z.v.b.b.b.b.b.b.j.j.j.",
"u k k k k B O.) &.<.&.w.w.w.k.l.v.v.v.v.v.n.n.n.M.v.b.M.v.v.n.n.n.v.v.z.m.m.b.m.N.b.b.b.b.x.b.j.j.j.",
"< u k i B ) ) ) &.<.<.w.w.a.l.l.l.v.v.v.n.n.m.n.n.n.n.n.n.n.n.v.v.v.v.B.v.m.m.v.b.b.b.b.x.b.f.x.b.j.",
"u i i k k ) ) R &.w.&.y.k.k.k.v.v.v.v.M.n.M.n.N.M.M.n.M.M.v.v.M.v.n.n.n.v.m.m.m.b.b.b.b.b.x.a.x.j.j.",
"i i ) B %.X.&.&.&.&.w.w.w.l.l.l.v.v.v.v.M.m.N.N.M.b.M.b.M.v.M.v.n.n.n.n.B.z.m.m.N.b.b.b.x.b.b.b.x.j.",
"g R R R ) %.X.&.y.&.w.k.l.l.z.l.v.n.n.n.M.M.M.M.n.M.M.M.M.M.n.n.n.n.n.n.v.N.n.b.b.m.b.b.b.b.f.h.j.x.",
"g R R R ) R y.&.&.&.k.w.l.l.l.z.n.v.n.M.n.M.M.B.M.n.M.M.n.n.n.n.n.n.n.n.M.n.m.N.N.b.b.b.b.b.x.b.s.s.",
"R R R &.` &.%.&.y.y.k.w.l.l.z.n.n.n.n.n.n.M.M.M.M.n.v.M.M.v.M.n.n.n.n.n.n.m.m.m.m.m.b.m.b.n.x.x.x.s.",
"R R R R &.&.&.y.y.y.w.k.l.v.z.z.z.v.v.n.n.M.M.M.M.M.M.M.M.M.n.n.n.n.n.n.m.M.n.m.n.N.b.b.b.b.b.b.s.x.",
"R R %.&.%.%.i.y.y.%.u.k.z.z.z.z.n.v.v.n.n.n.n.n.B.B.n.n.n.n.n.n.n.n.M.n.v.M.b.b.M.b.b.b.b.v.x.x.s.s.",
"%.R R &.y.%.y.y.y.i.u.z.z.z.k.B.v.n.M.n.n.n.n.B.n.n.B.n.B.n.B.n.n.n.n.n.v.M.v.M.M.b.n.b.b.b.z.x.h.s.",
"R R &.&.%.y.r.i.i.y.i.z.z.z.z.B.n.n.M.M.n.n.n.n.B.n.n.B.B.n.M.M.M.n.n.M.v.v.v.v.b.M.b.b.m.b.z.z.$.s.",
"&.&.&.&.%.%.r.i.y.i.i.z.B.z.z.u.v.M.v.v.M.M.B.n.n.n.B.n.n.B.n.M.n.n.M.v.v.M.M.v.M.b.b.n.v.x.z.z.s.s.",
"&.&.%.&.y.y.i.i.z.m.z.z.y.y.z.B.M.M.v.M.M.M.M.M.B.n.n.M.M.M.M.M.M.M.M.v.M.v.v.M.n.n.n.v.v.z.z.z.s.s.",
"%.&.%.%.y.w.z.i.z.z.z.z.z.B.z.z.v.M.M.M.M.M.M.M.n.B.B.M.n.B.M.M.M.v.n.M.v.M.M.M.n.n.n.v.n.z.z.z.s.s.",
"&.&.y.y.y.k.k.z.z.z.z.z.n.z.B.z.v.M.M.M.M.M.M.Z.B.B.n.B.B.B.M.M.M.M.M.M.M.v.M.v.n.n.n.n.n.v.n.z.s.9.",
"&.y.y.y.y.k.z.z.z.z.z.z.n.z.z.B.M.M.v.M.M.M.M.M.n.B.B.n.M.M.M.B.M.M.M.n.M.M.v.M.n.n.n.n.v.v.z.z.s.s.",
"%.z.%.z.z.z.z.z.z.z.m.m.m.n.n.n.M.M.M.M.M.M.B.M.B.B.B.B.B.B.B.B.M.N.M.Z.n.N.M.M.n.n.M.b.M.M.v.v.s.s.",
"%.%.z.%.%.z.z.m.m.m.m.m.n.B.n.B.M.M.M.M.M.B.M.M.B.B.B.B.B.B.B.B.N.N.N.N.N.M.N.M.M.M.v.M.M.v.v.v.v.s.",
"z.z.m.z.m.m.m.m.m.m.m.m.B.m.B.B.B.B.B.B.B.B.B.Z.B.B.C.B.C.B.C.B.Z.Z.N.N.N.N.N.N.N.N.M.M.M.n.n.v.s.s.",
"z.%.%.z.z.m.m.m.m.m.n.B.m.B.B.B.B.B.B.B.Z.B.Z.B.B.C.B.C.C.C.C.C.C.C.N.A.A.N.C.N.N.N.N.N.N.N.M.n.v.h.",
"z.z.z.m.m.m.m.B.B.B.B.B.B.B.B.B.B.B.Z.Z.B.S.B.B.C.C.C.C.C.C.C.C.C.D.C.C.N.D.N.D.D.N.C.N.N.N.N.m.v.M.",
"%.m.%.m.m.m.m.m.B.B.B.C.B.B.V.B.S.S.Z.Z.S.S.S.C.C.S.S.F.C.J.J.C.D.D.D.D.D.D.D.D.D.D.C.N.C.N.N.N.v.v.",
"z.m.m.m.m.B.m.B.B.B.C.C.C.C.C.B.S.S.S.S.S.S.S.S.S.J.J.J.C.I.I.I.G.G.G.G.G.G.G.G.G.D.D.C.D.C.N.N.v.b.",
"%.%.m.m.m.m.B.B.V.C.C.C.C.C.C.C.S.S.S.S.S.S.S.J.F.F.F.J.I.I.I.I.H.H.H.H.G.G.G.H.G.D.D.C.D.D.N.N.v.N.",
"m.m.m.m.m.m.B.C.C.C.C.C.C.C.C.C.C.P.I.C.I.I.C.I.I.I.I.I.I.I.I.P.K.K.K.K.K.K.K.H.K.H.G.G.D.C.C.N.N.N.",
"z.z.m.m.B.B.B.C.C.C.C.C.C.C.C.C.C.I.I.P.I.I.I.I.I.I.I.I.P.P.P.P.P.P.P.P.P.K.K.K.K.K.G.G.K.D.N.N.N.b."
};
